<?xml version="1.0" standalone="no"?>
<!DOCTYPE svg PUBLIC "-//W3C//DTD SVG 20010904//EN"
 "http://www.w3.org/TR/2001/REC-SVG-20010904/DTD/svg10.dtd">
<svg version="1.0" xmlns="http://www.w3.org/2000/svg"
 width="260.000000pt" height="260.000000pt" viewBox="0 0 260.000000 260.000000"
 preserveAspectRatio="xMidYMid meet">
<metadata>
Created by potrace 1.14, written by Peter Selinger 2001-2017
</metadata>
<g transform="translate(0.000000,260.000000) scale(0.100000,-0.100000)"
fill="#000000" stroke="none">
<path d="M860 2173 c-90 -33 -72 -163 23 -163 90 0 111 129 26 159 -18 6 -32
11 -33 10 -1 0 -8 -3 -16 -6z"/>
<path d="M1228 2092 c-14 -9 -86 -68 -160 -131 l-133 -114 -3 39 c-4 44 -17
64 -41 64 -37 -1 -44 -16 -45 -100 -1 -78 -3 -83 -32 -109 -17 -14 -59 -51
-93 -81 -35 -30 -69 -59 -77 -63 -20 -11 -17 -51 4 -70 16 -15 20 -15 47 2 17
10 42 29 56 42 14 13 52 46 85 74 32 27 61 52 64 55 3 4 35 31 72 62 36 31 79
67 95 81 149 130 182 157 190 157 6 0 19 -8 30 -17 469 -403 537 -458 567
-458 26 0 31 4 34 27 3 22 -12 40 -106 121 l-109 96 0 75 c0 78 -11 106 -43
106 -27 0 -44 -28 -42 -66 3 -41 -3 -42 -44 -6 -199 172 -272 232 -283 232 -3
0 -18 -8 -33 -18z"/>
<path d="M975 1604 c-132 -45 -202 -205 -145 -328 39 -82 105 -130 193 -142
39 -6 47 -4 56 14 15 27 -5 47 -56 55 -56 10 -99 41 -124 88 -58 115 16 248
143 255 57 3 92 -11 133 -52 32 -32 45 -63 51 -126 9 -92 52 -164 123 -206 39
-23 57 -27 121 -26 63 0 81 4 115 26 74 48 112 104 121 180 12 102 -39 200
-126 245 -48 25 -108 37 -126 25 -33 -22 -19 -62 22 -62 37 0 90 -28 122 -64
75 -86 46 -224 -58 -271 -80 -36 -186 -1 -225 76 -9 16 -18 54 -21 85 -7 70
-25 113 -66 159 -61 70 -166 98 -253 69z"/>
<path d="M933 1444 c-3 -8 2 -23 11 -32 15 -15 17 -15 32 0 21 21 11 48 -16
48 -11 0 -23 -7 -27 -16z"/>
<path d="M1042 1371 c-7 -4 -18 -27 -25 -51 l-12 -43 -33 28 c-23 19 -36 25
-43 18 -15 -15 8 -48 48 -70 31 -16 33 -16 52 2 12 10 21 26 21 37 0 23 8 23
28 -3 21 -25 50 -17 58 17 7 28 8 28 34 12 15 -10 22 -10 32 0 11 11 8 18 -15
38 -23 19 -32 22 -48 13 -11 -5 -23 -17 -26 -25 -7 -18 -23 -18 -23 1 0 18
-32 36 -48 26z"/>
<path d="M983 977 c-27 -14 -28 -63 -2 -92 18 -20 18 -21 -2 -22 -12 -1 -24
-5 -27 -8 -10 -9 19 -24 35 -18 10 4 13 -3 12 -28 -4 -70 -5 -69 66 -69 51 0
65 3 65 15 0 11 -12 15 -50 15 -27 0 -50 5 -50 10 0 18 -2 25 -11 43 -8 14 -5
17 15 17 35 0 56 10 56 26 0 10 -9 12 -32 8 -30 -6 -31 -5 -14 8 10 8 20 31
22 51 4 34 2 37 -21 37 -14 0 -25 5 -25 10 0 12 -8 11 -37 -3z m50 -43 c9 -10
-4 -34 -18 -34 -17 0 -28 17 -20 30 7 11 28 13 38 4z"/>
<path d="M773 965 c-3 -9 -12 -14 -21 -13 -8 2 -17 -3 -19 -9 -4 -12 17 -18
42 -13 6 1 0 -8 -12 -20 -40 -37 -21 -100 31 -100 29 0 46 18 46 49 0 31 -8
44 -35 59 -19 11 -18 12 5 8 14 -2 30 0 36 5 8 7 11 -15 9 -76 -1 -58 2 -89
11 -96 16 -13 21 -2 18 46 -1 22 0 48 3 58 9 34 18 6 18 -56 0 -48 3 -62 15
-62 23 0 22 228 -1 233 -13 2 -15 -5 -14 -33 2 -24 -2 -35 -11 -35 -7 0 -11 8
-9 18 4 24 -12 51 -22 37 -10 -13 -53 -17 -53 -5 0 15 -31 20 -37 5z m37 -100
c0 -18 -5 -25 -20 -25 -15 0 -20 7 -20 25 0 18 5 25 20 25 15 0 20 -7 20 -25z"/>
<path d="M1115 972 c-12 -8 -14 -156 -2 -168 13 -13 20 5 21 55 1 38 6 54 21
65 20 16 20 16 -2 22 -12 3 -23 12 -25 20 -2 7 -8 10 -13 6z"/>
<path d="M1534 969 c-10 -16 -9 -117 1 -127 4 -4 13 2 21 12 8 11 14 16 14 11
0 -5 5 -4 12 3 9 9 8 15 -8 27 -18 14 -18 16 -1 26 19 11 23 29 6 29 -7 0 -17
7 -24 17 -10 13 -13 14 -21 2z"/>
<path d="M1760 915 c0 -36 -2 -65 -4 -65 -2 0 -13 -3 -23 -7 -17 -6 -17 -5 1
15 l19 22 -72 0 c-54 0 -72 -3 -68 -12 2 -7 9 -14 15 -14 7 -1 16 -2 21 -3 5
0 8 -25 7 -53 l-1 -53 40 -5 c56 -7 95 0 95 16 0 10 -15 14 -54 14 -47 0 -54
3 -60 23 -3 12 -1 24 4 25 6 2 10 12 10 23 0 10 4 19 10 19 5 0 9 -10 7 -22
-1 -17 3 -23 20 -23 12 0 28 -6 34 -12 24 -24 29 -12 29 76 0 70 -3 90 -15 95
-12 4 -15 -6 -15 -59z"/>
<path d="M1226 954 c-25 -25 -18 -94 9 -94 8 0 10 -9 7 -25 -3 -17 -11 -25
-26 -25 -11 0 -28 -4 -36 -10 -13 -8 -12 -10 1 -15 25 -10 189 -1 189 10 0 6
-6 11 -13 11 -6 1 -17 2 -23 3 -21 2 -23 42 -4 61 22 22 18 68 -7 88 -23 17
-78 15 -97 -4z m87 -33 c6 -24 -10 -41 -40 -41 -25 0 -39 21 -29 45 8 23 62
19 69 -4z m-23 -91 c0 -11 -6 -20 -14 -20 -9 0 -14 9 -13 20 1 11 7 20 14 20
7 0 13 -9 13 -20z"/>
<path d="M1406 957 c-24 -18 -24 -74 0 -92 28 -21 61 -18 78 7 21 30 20 54 -4
78 -23 23 -49 26 -74 7z m57 -39 c7 -26 1 -38 -19 -38 -17 0 -28 24 -20 45 8
22 33 18 39 -7z"/>
<path d="M1632 953 c-6 -10 -6 -28 -1 -40 6 -18 16 -23 43 -23 42 0 63 28 46
60 -14 26 -75 28 -88 3z m61 -17 c8 -19 -19 -28 -33 -11 -8 10 -8 14 2 18 21
9 26 8 31 -7z"/>
<path d="M1436 821 c-19 -20 -14 -59 8 -73 35 -24 116 1 116 35 0 50 -89 77
-124 38z m89 -31 c0 -18 -52 -27 -67 -12 -17 17 2 33 35 30 20 -2 32 -8 32
-18z"/>
</g>
</svg>
